<svg xmlns="http://www.w3.org/2000/svg" width="32" height="32" viewBox="0 0 32 32" fill="none">
  <path d="M10.3346 3.33337C10.3346 2.78109 9.88692 2.33337 9.33464 2.33337C8.78235 2.33337 8.33464 2.78109 8.33464 3.33337V5.43905C6.41553 5.59272 5.15566 5.96987 4.23007 6.89547C3.30447 7.82107 2.92732 9.08093 2.77365 11H29.229C29.0753 9.08093 28.6981 7.82107 27.7725 6.89547C26.8469 5.96987 25.5871 5.59273 23.668 5.43905V3.33337C23.668 2.78109 23.2203 2.33337 22.668 2.33337C22.1157 2.33337 21.668 2.78109 21.668 3.33337V5.35058C20.7809 5.33337 19.7867 5.33337 18.668 5.33337H13.3346C12.2159 5.33337 11.2217 5.33337 10.3346 5.35058V3.33337Z" fill="url(#paint0_linear_561_468)"/>
  <path fill-rule="evenodd" clip-rule="evenodd" d="M2.66797 16C2.66797 14.8813 2.66797 13.8871 2.68517 13H29.3174C29.3346 13.8871 29.3346 14.8813 29.3346 16V18.6667C29.3346 23.695 29.3346 26.2092 27.7725 27.7713C26.2104 29.3334 23.6963 29.3334 18.668 29.3334H13.3346C8.30632 29.3334 5.79216 29.3334 4.23007 27.7713C2.66797 26.2092 2.66797 23.695 2.66797 18.6667V16ZM22.668 18.6667C23.4044 18.6667 24.0013 18.0698 24.0013 17.3334C24.0013 16.597 23.4044 16 22.668 16C21.9316 16 21.3346 16.597 21.3346 17.3334C21.3346 18.0698 21.9316 18.6667 22.668 18.6667ZM22.668 24C23.4044 24 24.0013 23.4031 24.0013 22.6667C24.0013 21.9303 23.4044 21.3334 22.668 21.3334C21.9316 21.3334 21.3346 21.9303 21.3346 22.6667C21.3346 23.4031 21.9316 24 22.668 24ZM17.3346 17.3334C17.3346 18.0698 16.7377 18.6667 16.0013 18.6667C15.2649 18.6667 14.668 18.0698 14.668 17.3334C14.668 16.597 15.2649 16 16.0013 16C16.7377 16 17.3346 16.597 17.3346 17.3334ZM17.3346 22.6667C17.3346 23.4031 16.7377 24 16.0013 24C15.2649 24 14.668 23.4031 14.668 22.6667C14.668 21.9303 15.2649 21.3334 16.0013 21.3334C16.7377 21.3334 17.3346 21.9303 17.3346 22.6667ZM9.33464 18.6667C10.071 18.6667 10.668 18.0698 10.668 17.3334C10.668 16.597 10.071 16 9.33464 16C8.59826 16 8.0013 16.597 8.0013 17.3334C8.0013 18.0698 8.59826 18.6667 9.33464 18.6667ZM9.33464 24C10.071 24 10.668 23.4031 10.668 22.6667C10.668 21.9303 10.071 21.3334 9.33464 21.3334C8.59826 21.3334 8.0013 21.9303 8.0013 22.6667C8.0013 23.4031 8.59826 24 9.33464 24Z" fill="url(#paint1_linear_561_468)"/>
  <defs>
    <linearGradient id="paint0_linear_561_468" x1="2.66797" y1="15.8334" x2="29.3346" y2="15.8334" gradientUnits="userSpaceOnUse">
      <stop offset="0.0391675" stop-color="#800080"/>
      <stop offset="0.527799" stop-color="#B466C1"/>
      <stop offset="0.92416" stop-color="#800080"/>
    </linearGradient>
    <linearGradient id="paint1_linear_561_468" x1="2.66797" y1="15.8334" x2="29.3346" y2="15.8334" gradientUnits="userSpaceOnUse">
      <stop offset="0.0391675" stop-color="#800080"/>
      <stop offset="0.527799" stop-color="#B466C1"/>
      <stop offset="0.92416" stop-color="#800080"/>
    </linearGradient>
  </defs>
</svg>