<svg xmlns="http://www.w3.org/2000/svg" width="32" height="32" viewBox="0 0 32 32" fill="none">
  <path fill-rule="evenodd" clip-rule="evenodd" d="M2.70313 15C3.21449 8.10323 8.97211 2.66663 15.9995 2.66663C14.8917 2.66663 13.9054 3.15224 13.0939 3.8948C12.2866 4.63363 11.6043 5.66499 11.0525 6.88416C10.4974 8.11052 10.0662 9.54487 9.77436 11.1014C9.54042 12.3492 9.39805 13.6646 9.3506 15H2.70313ZM2.70312 17H9.3506C9.39805 18.3353 9.54042 19.6507 9.77436 20.8985C10.0662 22.455 10.4974 23.8894 11.0525 25.1158C11.6043 26.3349 12.2866 27.3663 13.0939 28.1051C13.9054 28.8477 14.8917 29.3333 15.9995 29.3333C8.97211 29.3333 3.21449 23.8967 2.70312 17Z" fill="url(#paint0_linear_561_463)"/>
  <path d="M15.9995 4.52709C15.6328 4.52709 15.1591 4.68311 14.6083 5.18718C14.0534 5.69497 13.4979 6.49082 13.0071 7.57512C12.5196 8.65223 12.1237 9.9525 11.8513 11.4056C11.6368 12.5499 11.5037 13.7629 11.457 15H20.5421C20.4954 13.7629 20.3623 12.5499 20.1477 11.4056C19.8753 9.9525 19.4794 8.65224 18.9919 7.57512C18.5011 6.49082 17.9456 5.69498 17.3907 5.18718C16.8399 4.68311 16.3662 4.52709 15.9995 4.52709Z" fill="url(#paint1_linear_561_463)"/>
  <path d="M11.8513 20.5944C12.1237 22.0474 12.5196 23.3477 13.0071 24.4248C13.4979 25.5091 14.0534 26.3049 14.6083 26.8127C15.1591 27.3168 15.6328 27.4728 15.9995 27.4728C16.3662 27.4728 16.8399 27.3168 17.3907 26.8127C17.9456 26.3049 18.5011 25.5091 18.9919 24.4248C19.4794 23.3477 19.8753 22.0474 20.1477 20.5944C20.3623 19.4501 20.4954 18.237 20.5421 17H11.457C11.5037 18.237 11.6368 19.4501 11.8513 20.5944Z" fill="url(#paint2_linear_561_463)"/>
  <path d="M15.9995 2.66663C17.1073 2.66663 18.0937 3.15224 18.9051 3.8948C19.7125 4.63363 20.3948 5.665 20.9466 6.88416C21.5017 8.11052 21.9329 9.54487 22.2247 11.1014C22.4586 12.3492 22.601 13.6646 22.6484 15H29.2959C28.7846 8.10323 23.0269 2.66663 15.9995 2.66663Z" fill="url(#paint3_linear_561_463)"/>
  <path d="M22.2247 20.8985C21.9329 22.4551 21.5017 23.8894 20.9466 25.1158C20.3948 26.3349 19.7125 27.3663 18.9051 28.1051C18.0937 28.8477 17.1073 29.3333 15.9995 29.3333C23.0269 29.3333 28.7846 23.8967 29.2959 17H22.6484C22.601 18.3353 22.4586 19.6507 22.2247 20.8985Z" fill="url(#paint4_linear_561_463)"/>
  <defs>
    <linearGradient id="paint0_linear_561_463" x1="2.70312" y1="16" x2="29.2959" y2="16" gradientUnits="userSpaceOnUse">
      <stop offset="0.0391675" stop-color="#800080"/>
      <stop offset="0.527799" stop-color="#B466C1"/>
      <stop offset="0.92416" stop-color="#800080"/>
    </linearGradient>
    <linearGradient id="paint1_linear_561_463" x1="2.70312" y1="16" x2="29.2959" y2="16" gradientUnits="userSpaceOnUse">
      <stop offset="0.0391675" stop-color="#800080"/>
      <stop offset="0.527799" stop-color="#B466C1"/>
      <stop offset="0.92416" stop-color="#800080"/>
    </linearGradient>
    <linearGradient id="paint2_linear_561_463" x1="2.70312" y1="16" x2="29.2959" y2="16" gradientUnits="userSpaceOnUse">
      <stop offset="0.0391675" stop-color="#800080"/>
      <stop offset="0.527799" stop-color="#B466C1"/>
      <stop offset="0.92416" stop-color="#800080"/>
    </linearGradient>
    <linearGradient id="paint3_linear_561_463" x1="2.70312" y1="16" x2="29.2959" y2="16" gradientUnits="userSpaceOnUse">
      <stop offset="0.0391675" stop-color="#800080"/>
      <stop offset="0.527799" stop-color="#B466C1"/>
      <stop offset="0.92416" stop-color="#800080"/>
    </linearGradient>
    <linearGradient id="paint4_linear_561_463" x1="2.70312" y1="16" x2="29.2959" y2="16" gradientUnits="userSpaceOnUse">
      <stop offset="0.0391675" stop-color="#800080"/>
      <stop offset="0.527799" stop-color="#B466C1"/>
      <stop offset="0.92416" stop-color="#800080"/>
    </linearGradient>
  </defs>
</svg>